<?xml version="1.0" encoding="UTF-8"?> <svg xmlns="http://www.w3.org/2000/svg" fill="none" height="559" viewBox="0 0 668 559" width="668"><circle cx="43.7799" cy="180.784" fill="#e7a011" r="30.661" transform="matrix(.81268399 .58270466 -.58270466 .81268399 113.544356 8.352985)"></circle><circle cx="131.834" cy="513.835" fill="#131e29" r="18.5143" transform="matrix(.81268399 .58270466 -.58270466 .81268399 324.108669 19.429233)"></circle><circle cx="46.9377" cy="46.9377" fill="#eaedef" r="46.9377" transform="matrix(.810554 .585663 -.579746 .814797 591.424 0)"></circle><path d="m333.328 241.025v-212.1148l-275.1171 158.8088v212.115z" fill="#fff"></path><path d="m333.328 241.025v-212.1148l275.083 158.8088v212.115z" fill="#d8d8d8"></path><path d="m333.328 241.026-275.1171 158.808 275.1171 158.843 275.083-158.843z" fill="#e6e7e8"></path><path d="m304.654 108.001v88.995l-77.076 44.515v-88.995z" fill="#395972" stroke="#395972" stroke-linecap="round" stroke-linejoin="round"></path><path d="m163.957 187.232v88.995l-77.0761 44.515v-89.03z" fill="#395972" stroke="#395972" stroke-linecap="round" stroke-linejoin="round"></path><path d="m356.539 106.368 124.232 71.238-9.382 6.082-124.371-71.829z" fill="#131e29"></path><path d="m480.769 177.606v89.135l-9.382 4.969v-88.022z" fill="#395972"></path><path d="m347.017 111.858-.244 87.779 124.615 72.072v-88.023z" fill="#fff"></path><path d="m395.489 193.974c1.703.973 3.058 3.37 3.058 5.316v5.317c0 1.946-1.425 2.745-3.093 1.772l-32.457-18.73c-1.702-.973-3.058-3.371-3.058-5.317v-5.316c0-1.947 1.425-2.746 3.093-1.773zm-30.511-7.645c1.807 1.042 3.267.208 3.302-1.877.034-2.085-1.46-4.622-3.267-5.664-1.807-1.043-3.267-.209-3.301 1.876-.035 2.085 1.459 4.622 3.266 5.665z" fill="#e6e7e8"></path><path d="m353.258 157.337c.962-.56.953-2.372-.021-4.048s-2.544-2.581-3.506-2.022c-.962.56-.953 2.372.021 4.048s2.543 2.581 3.506 2.022z" fill="#395972"></path><path d="m353.299 148.447c.962-.559.953-2.371-.021-4.047s-2.544-2.581-3.506-2.022-.953 2.371.021 4.047 2.543 2.582 3.506 2.022z" fill="#395972"></path><path d="m353.326 139.585c.962-.559.953-2.371-.021-4.047s-2.543-2.581-3.506-2.022c-.962.559-.953 2.371.021 4.047s2.544 2.581 3.506 2.022z" fill="#395972"></path><path d="m395.456 209.02c1.702.973 3.058 3.37 3.058 5.316v5.317c0 1.946-1.425 2.745-3.093 1.772l-32.457-18.73c-1.702-.973-3.058-3.371-3.058-5.317v-5.317c0-1.946 1.425-2.745 3.093-1.772zm-30.511-7.646c1.807 1.043 3.267.209 3.301-1.876.035-2.085-1.459-4.622-3.266-5.664-1.807-1.043-3.267-.209-3.301 1.876-.035 2.085 1.459 4.622 3.266 5.664z" fill="#bbbdbf"></path><path d="m353.367 130.696c.963-.56.953-2.372-.021-4.048s-2.543-2.581-3.506-2.022c-.962.56-.953 2.372.021 4.048s2.544 2.581 3.506 2.022z" fill="#395972"></path><path d="m350.699 116.584c.487.278.869.939.869 1.46s-.382.764-.869.486c-.486-.278-.868-.938-.834-1.459.035-.521.383-.765.869-.487z" fill="#395972"></path><path d="m353.862 118.391c.486.278.868.938.868 1.46 0 .521-.382.764-.868.486-.487-.278-.869-.938-.834-1.459.034-.522.382-.765.868-.487z" fill="#395972"></path><path d="m356.818 120.093c.486.278.869.938.869 1.46 0 .521-.383.764-.869.486-.487-.278-.869-.938-.869-1.494s.382-.765.869-.487z" fill="#395972"></path><path d="m395.53 178.927c1.703.973 3.058 3.371 3.058 5.317v5.316c0 1.946-1.425 2.746-3.093 1.773l-32.457-18.731c-1.702-.973-3.058-3.371-3.058-5.317v-5.316c0-1.946 1.425-2.746 3.093-1.773zm-30.511-7.645c1.807 1.042 3.267.208 3.301-1.877.035-2.085-1.459-4.622-3.266-5.664-1.807-1.043-3.267-.209-3.301 1.876-.035 2.085 1.459 4.622 3.266 5.665z" fill="#bbbdbf"></path><path d="m395.565 163.844c1.703.973 3.058 3.371 3.058 5.317v5.351c0 1.946-1.425 2.745-3.093 1.772l-32.456-18.73c-1.703-.973-3.058-3.371-3.058-5.317v-5.351c0-1.946 1.424-2.746 3.092-1.773zm-30.511-7.645c1.807 1.042 3.267.208 3.302-1.877.034-2.085-1.46-4.622-3.267-5.664-1.807-1.043-3.266-.209-3.301 1.876s1.459 4.622 3.266 5.665z" fill="#e6e7e8"></path><path d="m386.32 145.601c.522.278.939 1.008.939 1.599v1.529c0 .591-.417.834-.939.521l-25.298-14.63c-.521-.278-.938-1.008-.938-1.598v-1.529c0-.591.417-.834.938-.522z" fill="#fcb813"></path><path d="m417.492 163.567c.522.278.938 1.008.938 1.598v1.529c0 .591-.416.834-.938.522l-25.298-14.63c-.521-.313-.938-1.008-.938-1.599v-1.529c0-.59.417-.834.938-.521z" fill="#fcb813"></path><path d="m448.625 181.568c.521.278.938 1.008.938 1.599v1.529c0 .591-.417.834-.938.521l-25.298-14.63c-.521-.312-.938-1.007-.938-1.598v-1.529c0-.591.417-.834.938-.521z" fill="#fcb813"></path><path d="m353.258 166.215c.962-.56.953-2.372-.021-4.048s-2.544-2.581-3.506-2.022c-.962.56-.953 2.372.021 4.048s2.543 2.581 3.506 2.022z" fill="#395972"></path><path d="m445.326 198.456-.139 49.658 4.761 2.745.069-27.592 8.723 5.039-.07 27.592 3.962 2.293v1.529l-58.277-33.638.139-50.249 1.321.765-.139 48.72 3.788 2.189.069-22.518 8.723 5.038-.035 22.519 4.761 2.745.069-33.916 8.757 5.038-.104 33.917 4.761 2.745.139-49.658z" fill="#395972"></path><path d="m479.585 353.615c-7.054 4.275-6.984 11.016.139 15.082 7.159 4.066 18.661 3.857 25.716-.417 7.054-4.274 6.984-11.016-.174-15.082-7.124-4.065-18.661-3.857-25.715.417z" fill="#395972" stroke="#395972" stroke-linecap="round" stroke-linejoin="round" stroke-width=".56"></path><path d="m510.692 334.955v26.062h-36.348v-25.958z" fill="#395972" stroke="#395972" stroke-linecap="round" stroke-linejoin="round" stroke-width=".56"></path><path d="m479.585 327.588c-7.054 4.275-6.984 11.016.139 15.082 7.159 4.066 18.661 3.857 25.716-.417 7.054-4.274 6.984-11.016-.174-15.082-7.124-4.065-18.661-3.857-25.715.417z" fill="#395972" stroke="#395972" stroke-linecap="round" stroke-linejoin="round" stroke-width=".56"></path><path d="m479.625 330.367c-7.089 3.823-7.019 9.834.139 13.448 7.159 3.614 18.661 3.406 25.715-.417 7.055-3.822 7.02-9.834-.139-13.448-7.123-3.614-18.661-3.405-25.715.417z" fill="#131e29" stroke="#131e29" stroke-linecap="round" stroke-linejoin="round" stroke-width=".56"></path><path d="m483.827 279.911s2.954-1.425 5.629 4.518c2.363 5.316 1.946 15.672-.59 25.02-2.537 9.348-3.371 11.711-3.684 15.498-.347 4.205.904 7.75 1.599 10.113-1.946 1.39-2.85-.174-2.85-.174s-2.954-6.29-1.355-13.344c1.598-7.054 4.726-9.765 5.873-19.703 1.181-9.939.382-15.395-1.738-17.723-2.154-2.328-3.371-2.745-3.371-2.745l.487-1.495z" fill="#00844b"></path><path d="m497.242 277.79s-2.954-1.424-5.63 4.518c-2.363 5.317-1.946 15.672.591 25.02s3.371 11.711 3.683 15.499c.348 4.204-.903 7.749-1.598 10.112 1.946 1.39 2.849-.174 2.849-.174s2.954-6.29 1.356-13.344c-1.599-7.054-4.726-9.765-5.873-19.703-1.182-9.939-.382-15.395 1.737-17.723 2.155-2.328 3.371-2.745 3.371-2.745l-.486-1.494z" fill="#00844b"></path><path d="m500.579 294.02s-8.34 13.587-6.742 19.911c1.599 6.325 5.665 10.912 6.742 18.071.695 4.691.104 7.158.104 7.158s-1.32 1.564-2.467.139c.208-1.911.347-5.178-.382-8.687-.904-4.449-2.885-9.314-4.379-12.684-2.71-6.012-1.703-11.12 1.39-17.236 1.46-2.885 5.769-6.672 5.769-6.672z" fill="#00844b"></path><path d="m487.266 295.131s8.34 13.587 6.742 19.912c-1.599 6.325-5.665 10.912-6.742 18.07-.695 4.691-.104 7.159-.104 7.159s1.32 1.563 2.467.139c-.208-1.912-.347-5.178.382-8.688.904-4.448 2.885-9.313 4.379-12.684 2.71-6.012 1.703-11.12-1.39-17.236-1.46-2.884-5.769-6.672-5.769-6.672z" fill="#00844b"></path><path d="m495.744 294.089s12.858-11.919 24.464 14.039c11.607 25.958 3.336 32.005 3.336 32.005l-27.8-46.009z" fill="#69ab6c"></path><path d="m495.752 294.089s-16.298 8.722 2.745 29.816c15.915 17.618 25.055 16.193 25.055 16.193z" fill="#00844b"></path><path d="m494.429 282.205s-.626-17.514 26.619-9.383c27.244 8.132 26.41 18.348 26.41 18.348z" fill="#69ab6c"></path><path d="m494.429 282.203s-4.031 18.07 24.395 17.375c23.734-.556 28.634-8.409 28.634-8.409z" fill="#00844b"></path><path d="m490.814 283.977s10.772 13.83-16.055 23.213c-26.827 9.382-32.144.625-32.144.625z" fill="#69ab6c"></path><path d="m490.817 283.976s-7.333-16.993-29.955.209c-18.904 14.386-18.244 23.595-18.244 23.595l48.199-23.839z" fill="#00844b"></path><path d="m489.144 294.436s16.194 6.742-2.571 28.078c-18.765 21.337-27.696 16.333-27.696 16.333l30.302-44.446z" fill="#69ab6c"></path><path d="m489.144 294.436s-14.734-11.19-25.993 14.908c-9.417 21.788-4.309 29.538-4.309 29.538z" fill="#00844b"></path><g stroke-linecap="round" stroke-linejoin="round"><path d="m562.225 413.804s-.07 0-.104 0l-33.117-19.46s-.104-.105-.104-.174l-.244-70.369s0-.139.104-.174h.174l33.117 19.46s.104.104.104.174l.244 70.369s0 .139-.105.174c0 0-.069 0-.104 0z" fill="#d8d8d8" stroke="#d8d8d8"></path><path d="m562.223 413.804s-.069 0-.104 0c-.069 0-.104-.105-.104-.174l-.244-70.369s0-.139.105-.174l33.325-19.46h.174c.069 0 .104.104.104.174l.243 70.369s0 .139-.104.174l-33.325 19.46s-.07 0-.104 0z" fill="#fff" stroke="#fff"></path><path d="m539.738 334.468.244 27.835 17.027 10.008-.208-28.148z" fill="#f0b323" stroke="#f0b323"></path><path d="m539.74 334.468-5.838-3.336.105 34.993 5.977-3.822z" fill="#fcd077" stroke="#fcd077"></path><path d="m540.23 362.338 16.784 9.973-.312 6.846-22.692-13.032z" fill="#c48e23" stroke="#c48e23"></path><path d="m595.479 323.766-32.561-18.453-34.229 18.453 31.38 18.244z" fill="#e7e8e8" stroke="#e7e8e8"></path><path d="m546.932 320.742v.973.139.07.069.244.208c0 .07 0 .174.035.243v.035.035.069.07c0 .069.035.139.07.243 0 .07.034.139.069.209 0 .069.035.139.07.243v.104.07.069c0 .07.069.174.104.243 0 .07.069.139.104.209.035.069.07.174.139.243v.07.069s.035.07.07.104l.069.105s.139.243.243.382v.069s.209.209.278.313l.07.104s.174.209.243.313l.07.07s.208.243.347.347l.104.104s.105.105.139.139c0 0 0 0 .035.035 0 0 0 0 .035.035.069.069.139.139.243.208.07.07.139.139.209.174.069.07.173.139.243.209.069.069.174.104.243.173.104.07.174.139.278.209.07.069.174.104.243.174.105.069.209.139.278.173h.07s.069.105.104.105c.07.034.139.069.209.104.208.139.451.243.729.417.07 0 .105.069.174.104h.035c.208.104.382.209.591.313h.069s.07.069.139.104c.278.139.556.243.799.348l.139.069c.244.07.452.174.695.243h.07.069.105.069s.243.105.382.139c.105 0 .209.07.348.105.139.034.278.069.417.104.104 0 .208.069.347.069s.278.07.417.105c.105 0 .244.069.348.069.139 0 .278.07.417.07h.104s.104.035.139.035h.07c.312.069.625.104.903.173h.139c.243.035.521.07.799.104h.139.105.069s.348.035.521.035h.313.556.104.105.104.417.139.243.452.139.139.035.382.208.209.417.208.139c.209 0 .417-.034.626-.069h.069.105c.243 0 .521-.07.764-.105h.139c.209-.069.452-.069.66-.138h.174.139s.313-.07.452-.105h.069s.07 0 .105-.035h.104c.174-.069.347-.104.556-.139.069 0 .139-.034.243-.069h.07s.312-.104.486-.139h.07s.034 0 .069-.035h.07.069c.278-.069.521-.174.765-.243h.139c.278-.139.556-.243.868-.348h.07s.104-.069.174-.104l.173-.069s.139-.07.209-.07c.139-.069.243-.104.382-.174h.104s.105-.104.174-.104c.139-.069.278-.139.417-.208h.07s.069-.07.104-.105c.208-.104.382-.208.591-.312 3.058-1.773 4.726-4.136 4.726-6.638v-.973c-.139.417-.348.834-.591 1.217-.174.312-.382.59-.626.903-.834 1.043-1.946 1.981-3.336 2.78-.173.104-.382.209-.59.313-.035 0-.07.035-.139.069h-.07s-.278.174-.417.244c-.069 0-.104.069-.174.069h-.069s-.243.139-.382.209c-.07 0-.139.069-.209.069h-.069s-.244.139-.348.174c-.313.104-.591.208-.869.313h-.139c-.243.139-.521.208-.764.278-.104 0-.174.069-.278.069-.174.035-.348.104-.487.139h-.069s-.139.07-.243.07c-.174.034-.383.069-.556.139h-.105s-.104.034-.173.069c-.174 0-.313.07-.487.104h-.139s-.104.035-.174.07c-.208.035-.451.069-.66.104h-.139c-.243.07-.521.104-.799.104 0 0-.07 0-.104 0h-.07c-.208 0-.417.035-.625.07-.07 0-.105 0-.174 0h-.174s-.278 0-.417.035c-.069 0-.139 0-.208 0h-.209s-.243 0-.382 0c-.07 0-.139 0-.209 0h-.139s-.312 0-.486 0c-.07 0-.139 0-.243 0h-.139s-.313 0-.452 0c-.07 0-.139 0-.209 0h-.104c-.174 0-.382 0-.556 0-.104 0-.208 0-.347 0-.174 0-.348 0-.522-.035-.104 0-.208 0-.312 0-.278 0-.556-.07-.8-.104h-.139c-.278-.07-.59-.105-.938-.174-.104 0-.174 0-.278-.035h-.069s-.278-.069-.417-.104c-.105 0-.209-.035-.313-.07 0 0-.278-.069-.417-.104-.104 0-.243-.069-.348-.104-.139-.035-.278-.07-.417-.104-.104 0-.243-.07-.347-.105-.139-.034-.278-.069-.382-.139-.105 0-.209-.069-.313-.104-.243-.069-.487-.174-.695-.243h-.07s-.069-.035-.069-.07c-.278-.104-.521-.208-.834-.347-.035 0-.104-.035-.139-.07h-.07c-.208-.139-.417-.208-.625-.312h-.035s-.139-.07-.174-.105c-.278-.139-.521-.278-.764-.417-.104-.069-.209-.139-.313-.208h-.069s-.209-.174-.313-.243c-.104-.07-.174-.105-.278-.174-.104-.07-.174-.139-.278-.209-.07-.069-.174-.139-.243-.173-.105-.07-.174-.139-.244-.209-.069-.069-.139-.139-.243-.208-.069-.07-.174-.139-.243-.209-.104-.104-.209-.174-.278-.278l-.07-.069s-.243-.244-.347-.348l-.07-.104s-.173-.209-.278-.313l-.069-.069s-.174-.244-.278-.383v-.069s-.209-.243-.313-.382v-.07s-.139-.174-.174-.243c0 0-.104-.174-.139-.278 0-.07-.069-.139-.104-.209-.035-.069-.069-.173-.104-.243 0-.069-.035-.104-.07-.174z" fill="#f0b323" stroke="#f0b323"></path><path d="m563.093 328.561s-.209 0-.278 0h-.07c-.208 0-.382 0-.591 0-.139 0-.278 0-.451 0-.174 0-.383 0-.556 0-.139 0-.313 0-.452 0h-.104s-.105 0-.174 0c-.035 0-.104 0-.139 0h-.104c-.209 0-.383-.035-.591-.069-.174 0-.313 0-.487-.035-.208 0-.382-.035-.59-.07-.174 0-.313-.034-.487-.069-.208 0-.417-.07-.591-.104h-.069s-.243-.035-.382-.07c-.209 0-.417-.069-.591-.104h-.139s-.139-.035-.209-.07h-.104c-.278-.069-.556-.139-.834-.208h-.104s-.104-.035-.139-.035c-.348-.069-.695-.174-1.043-.278-.069 0-.104 0-.173-.035h-.105c-.243-.104-.521-.173-.764-.243-.104 0-.174-.069-.243-.069h-.105c-.208-.105-.417-.174-.625-.244-.139-.034-.243-.104-.382-.139-.209-.069-.417-.173-.626-.243-.139-.069-.243-.104-.382-.174-.209-.069-.382-.173-.591-.243h-.069s-.209-.104-.278-.174c-.209-.104-.417-.208-.626-.312l-.104-.07s-.139-.069-.174-.104c-.313-.174-.625-.348-.869-.487-.173-.104-.347-.208-.521-.312l-.104-.07s-.348-.208-.487-.313h-.034s-.278-.243-.452-.347l-.104-.07s-.313-.243-.452-.347l-.07-.07s-.243-.208-.382-.312l-.139-.139s-.243-.209-.348-.313l-.069-.07s-.208-.208-.313-.312l-.104-.105s-.243-.243-.347-.382h-.035s-.209-.278-.278-.382l-.07-.104s-.208-.244-.278-.383c-.069-.104-.139-.208-.208-.312 0 0 0 0 0-.035 0 0-.174-.278-.244-.382v-.07s-.069-.035-.069-.069c-.104-.174-.174-.348-.278-.522 0 0 0-.034 0-.069-.069-.174-.139-.313-.174-.452 0-.035-.035-.104-.069-.139 0 0-.104-.278-.139-.382 0 0 0-.07 0-.104 0-.07-.07-.174-.07-.244l-1.598-5.143c0-.104 0-.208.104-.243.104 0 .208 0 .243.104 0 0 .07.209.104.313 0 0 .07.243.14.382 0 0 .034.139.069.174.069.139.139.278.174.417v.07s.035.034.069.069c.105.174.174.348.278.521 0 0 0 .035.035.07v.069s.209.244.278.383c.07.139.174.243.278.382s.209.278.313.417l.069.104s.209.243.313.348h.035c.104.173.243.312.347.451l.105.105s.208.208.312.312l.07.07s.278.243.417.382l.104.07s.243.208.382.312l.07.07s.313.243.452.347l.104.07s.313.208.452.313h.069s.348.278.521.382l.139.069c.174.105.383.244.556.348.278.174.591.347.939.521.069 0 .139.07.208.104l.104.07c.209.104.452.208.661.313.104.034.208.104.312.139h.07c.208.139.417.208.625.312.139.07.278.105.417.174.209.07.417.174.626.243.139.035.278.105.417.139.208.07.452.174.695.244h.104s.174.104.278.139c.278.069.521.173.799.243h.139s.105.069.174.104c.382.104.765.209 1.112.278h.139.104c.348.104.626.174.904.209.104 0 .208.034.313.069h.139c.208.07.417.104.66.139.139 0 .278.035.382.07h.104c.209.034.417.069.626.104.174 0 .347.035.521.069.209 0 .417.035.626.07.173 0 .347 0 .521.035.208 0 .417.034.625.069.174 0 .383 0 .556.035h.487.591.486.626.069.382.626.139.313.486.243.348.486.278s.209-.035.348-.035c.174 0 .313 0 .486-.035h.313s.209-.034.313-.069c.174 0 .347-.035.486-.07h.313s.209-.069.278-.069c.313-.035.626-.104.938-.139h.244c.278-.104.521-.139.799-.209h.174c.312-.104.625-.173.938-.243l.208-.069c.244-.07.522-.139.765-.209l.208-.069c.313-.07.591-.174.904-.244l.174-.069c.243-.07.486-.174.729-.243l.209-.07c.313-.104.591-.208.869-.313l.139-.069c.243-.104.486-.209.729-.278l.209-.104c.313-.139.591-.244.834-.383h.069c.244-.139.452-.278.73-.417.07-.034.139-.069.209-.104.312-.174.556-.313.764-.417 3.371-1.981 5.63-4.483 6.464-7.193 0 0 .139-.139.243-.104.104 0 .139.139.104.243l-1.564 5.143s-.104.278-.138.452c-.174.486-.383.938-.661 1.39-.069.173-.174.312-.278.486-.069.07-.104.174-.174.243l-.069.105s-.035.069-.069.104c-.174.243-.348.452-.591.73v.069s-.105.07-.139.104c-.348.417-.765.8-1.217 1.217 0 0 .001.069-.034.069-.209.209-.487.382-.765.626-.278.208-.521.417-.799.556l-.104.069c-.383.243-.73.487-1.112.695-.209.139-.452.243-.73.417-.07 0-.139.07-.209.104-.243.139-.451.244-.695.348h-.069c-.243.139-.487.278-.765.382l-.208.07c-.209.104-.452.173-.695.278l-.139.069c-.243.104-.521.209-.799.313l-.209.069c-.243.07-.452.139-.695.244l-.174.069c-.278.07-.556.174-.834.243h-.208c-.243.105-.487.174-.73.244h-.208c-.313.104-.591.173-.869.243h-.174c-.243.069-.486.139-.764.174h-.209c-.278.104-.556.139-.869.173 0 0-.208 0-.278.035h-.278s-.312.07-.486.104c-.104 0-.209 0-.313 0h-.278s-.313.07-.452.07c-.104 0-.208 0-.312 0h-.244s-.312.035-.451.035c-.105 0-.209 0-.348 0h-.313s-.208 0-.278 0h-.104s-.208 0-.278 0h-.139c-.208 0-.382 0-.591 0 0 0-.034 0-.069 0z" fill="#d8d8d8" stroke="#d8d8d8"></path><path d="m562.92 324.183s0 0-.035 0c-.104 0-.208 0-.347 0h-.209c-.208 0-.417 0-.66 0h-.139s-.104 0-.174 0c-.034 0-.104 0-.139 0-.278 0-.521 0-.799-.035-.174 0-.313 0-.486 0-.244 0-.487-.035-.765-.07-.035 0-.069 0-.104 0s-.104 0-.139 0c-.07 0-.139 0-.209 0h-.382c-.347-.069-.66-.139-.973-.173h-.139c-.278-.07-.556-.105-.834-.139l-.452-.07s-.139 0-.208-.035c-.035 0-.104 0-.139 0-.209-.034-.417-.069-.626-.139-.173 0-.312-.069-.451-.104-.209-.069-.417-.104-.591-.139s-.313-.069-.487-.139c-.208-.035-.382-.104-.59-.174-.174-.034-.313-.104-.487-.139-.208-.069-.382-.104-.556-.173-.035 0-.069 0-.104 0s-.104 0-.139-.035c-.07 0-.139-.07-.243-.07l-.313-.104c-.313-.104-.591-.208-.869-.313l-.174-.069c-.243-.104-.486-.209-.729-.278l-.209-.104c-.313-.139-.591-.244-.834-.383h-.104c-.243-.173-.452-.278-.73-.417-.069-.034-.139-.069-.208-.104-.313-.174-.556-.313-.765-.452-.104-.069-.208-.104-.278-.173h-.069s-.139-.105-.174-.174c0 0-.139-.104-.209-.139-.069-.035-.139-.104-.208-.139h-.035s-.104-.104-.139-.139c-.069-.035-.139-.104-.174-.139h-.069s-.104-.104-.139-.139c-.07-.035-.104-.07-.174-.139l-.069-.07s-.105-.069-.139-.104c-.07-.035-.105-.069-.174-.139l-.104-.069s-.07-.07-.105-.105c-.069-.034-.104-.104-.173-.139l-.07-.069s-.069-.07-.104-.104c-.035-.035-.104-.07-.139-.139l-.07-.07s-.069-.069-.104-.104-.104-.104-.139-.139l-.069-.07s-.035-.034-.07-.069c-.139-.104-.243-.243-.347-.348l-.105-.104s-.173-.174-.243-.278l-.104-.104s-.174-.209-.278-.313l-.07-.069s-.208-.244-.312-.383c0 0 0-.069-.035-.069 0 0-.104-.174-.174-.243 0-.035-.069-.105-.104-.139-.035-.07-.104-.139-.139-.209 0-.035-.07-.104-.104-.139-.035-.069-.105-.139-.139-.208 0-.035-.07-.105-.07-.139-.035-.07-.104-.139-.139-.244l-.069-.104c-.035-.069-.07-.104-.105-.174v-.069s-.069-.07-.069-.104c-.035-.07-.07-.139-.104-.244 0 0 0-.069 0-.104-.035-.104-.105-.209-.139-.348 0 0-.07-.243-.105-.347 0-.035 0-.07 0-.104v-.07s-.069-.104-.069-.174c0 0 0-.069 0-.104v-.069s-.07-.104-.07-.174c0-.035 0-.069 0-.104v-.07s-.034-.104-.069-.139c0 0 0-.069 0-.104v-.104s-.035-.105-.035-.139c0 0 0-.07 0-.105v-.069s0-.104-.035-.174c0-.035 0-.069 0-.104v-.07c0-.069 0-.104 0-.173 0-.035 0-.105 0-.139 0 0 0-.139 0-.209 0-.069 0-.104 0-.174 0-.069 0-.139 0-.173v-.07s0-.139 0-.208l-.069-23.144s.069-.174.174-.174c0 0 .173.07.173.174v.243.174.139.174.139.174.139.173.07.104.139.07s0 .069.035.104v.139.104s.035.07.035.104c0 .035 0 .105.035.139v.07s.034.069.069.104c0 .07.035.104.07.174v.069s.034.07.069.07c0 .104.07.174.104.278 0 0 .105.278.139.382v.104s.105.139.139.209l.07.139s.069.139.104.208l.07.105s.069.139.139.208c0 0 .034.07.069.104 0 0 .07.174.139.244 0 .034.07.104.104.139.035.069.105.139.139.208 0 .035.07.07.105.139.034.07.104.139.139.209l.104.104s.174.243.278.347v.07s.208.208.313.313l.104.104s.174.174.243.278l.104.104s.244.243.348.348l.174.173s.069.07.139.105c.034 0 .069.069.104.104l.069.069s.105.105.174.139c0 0 .07.07.104.07l.07.069s.104.07.139.139c.035 0 .069.07.104.105l.104.069s.105.07.139.104c.035 0 .07.07.139.105l.105.069s.104.07.139.104c.034.035.104.07.139.105h.069s.104.104.174.173c.069.035.139.07.174.139.069.035.139.105.208.139.07.035.104.07.174.105.069.069.174.104.243.139.104.069.243.139.348.208.208.139.451.278.764.417.07.035.139.07.209.104.243.139.486.244.695.348h.104c.243.174.521.278.799.417l.209.104c.243.104.486.209.695.278l.139.07c.278.104.556.208.868.312l.209.07c.208.069.382.139.591.208.173.07.382.105.556.174.173.035.312.104.486.139.209.07.382.104.591.139.174.035.313.07.486.139.209.035.383.104.591.139 0 0 .313.07.452.104.208.035.417.07.591.105h.104s.278.069.417.104h.243c.278.104.556.139.834.174h.139c.313.069.626.104.973.139h.243c.174.034.383.069.556.069.244 0 .487.035.765.07h.486c.244 0 .522 0 .8.034h.139.312.626.208.313.66.209.278.521.313.313c.208 0 .382 0 .59-.034h.278s.174 0 .244-.035c.278 0 .59-.07.868-.07h.105.139c.382-.034.73-.104 1.112-.139h.104.069c.383-.069.661-.104.939-.173.069 0 .174 0 .243-.035h.209c.243-.07.451-.104.695-.174.069 0 .138 0 .243-.035h.139c.278-.104.521-.139.799-.208.104 0 .243-.07.348-.104h.104c.243-.07.486-.139.695-.209.208-.069.417-.104.591-.174l.208-.069c.313-.104.591-.209.904-.278l.173-.07c.244-.069.487-.173.73-.278.07 0 .174-.069.243-.104.174-.069.383-.139.556-.243h.105s.208-.104.278-.174c.173-.069.347-.174.556-.243l.104-.07s.174-.069.243-.104c.209-.104.382-.174.556-.278l.139-.069s.104-.07.174-.105c.278-.173.591-.312.834-.451 4.413-2.572 6.811-5.977 6.811-9.591 0-.105.069-.174.174-.174 0 0 .173.069.173.174l.07 23.143c0 3.753-2.467 7.263-6.985 9.904-.278.139-.556.313-.834.487-.069 0-.104.069-.174.104l-.104.069c-.208.105-.382.209-.591.278-.069.035-.173.07-.243.105l-.104.069c-.174.07-.382.174-.556.243-.104.035-.209.07-.313.139l-.243.105s-.174.069-.243.104c-.035 0-.07 0-.105.035h-.069s-.174.104-.243.139c-.244.104-.487.173-.73.278l-.174.069c-.278.104-.591.209-.903.278l-.348.104s-.174.07-.278.07c-.035 0-.069 0-.104 0 0 0-.07 0-.104 0-.244.069-.487.139-.73.208h-.07s-.243.07-.347.105c-.278.069-.521.139-.799.173-.035 0-.07 0-.139 0-.07 0-.105 0-.174.035h-.07c-.243.07-.451.104-.695.139h-.173s-.174.07-.244.07c-.278.034-.59.104-.973.139h-.069s-.07 0-.105 0c-.382.069-.764.104-1.146.139-.035 0-.105 0-.139 0h-.104c-.278.034-.591.069-.869.104 0 0-.139 0-.244 0h-.277c-.209 0-.418.035-.626.069-.104 0-.209 0-.313 0h-.312c-.174 0-.348 0-.522 0h-.069s-.139 0-.209 0h-.208c-.209 0-.417 0-.626 0z" fill="#fff" stroke="#fff"></path><path d="m562.923 301.039h-.069c-.278 0-.556 0-.869 0h-.104s-.174 0-.278 0h-.104c-.209 0-.452 0-.661 0-.139 0-.243 0-.382 0h-.174s-.139 0-.208 0c-.035 0-.104 0-.139 0h-.104c-.174 0-.348-.035-.522-.07-.173 0-.382-.034-.556-.069-.173 0-.347-.035-.521-.07h-.139s-.104 0-.174 0c-.034 0-.069 0-.139 0h-.104c-.243-.034-.521-.104-.764-.139h-.105s-.243-.034-.347-.069c-.278-.035-.556-.104-.869-.139-.035 0-.069 0-.139 0-.069 0-.104 0-.139 0h-.069s-.139-.035-.209-.07h-.139c-.208-.069-.452-.139-.66-.173-.104 0-.209-.035-.278-.07h-.104c-.209-.069-.417-.139-.591-.174-.139-.034-.278-.069-.417-.104-.209-.069-.382-.104-.591-.174-.139-.034-.278-.069-.417-.139h-.104s-.104-.069-.139-.069c-.104-.035-.209-.07-.313-.104l-.278-.105c-.278-.104-.591-.208-.869-.312l-.208-.07c-.243-.104-.452-.174-.695-.278h-.07s-.104-.069-.139-.104c-.313-.139-.556-.243-.834-.382l-.139-.07c-.243-.104-.452-.243-.695-.347-.069-.035-.139-.07-.208-.105-.313-.173-.556-.312-.765-.451-.104-.07-.243-.139-.347-.209h-.07c-.243-.174-.452-.313-.625-.452h-.07c-.174-.173-.347-.278-.521-.417-.07-.034-.104-.069-.174-.104-.174-.104-.313-.243-.452-.347l-.104-.07s-.347-.278-.521-.417h-.035s-.069-.104-.104-.139l-.104-.104s-.07-.07-.139-.104c-.07-.07-.139-.139-.209-.209l-.069-.069s-.07-.07-.105-.105c-.069-.069-.139-.139-.208-.208h-.035s-.069-.104-.069-.139c-.105-.104-.174-.174-.244-.278l-.069-.07s-.209-.243-.278-.347l-.07-.104s-.139-.174-.208-.244c0-.034-.07-.069-.104-.104-.07-.069-.139-.174-.174-.243l-.139-.209s-.174-.278-.243-.417c0-.034-.07-.104-.07-.139-.104-.139-.174-.312-.243-.451-.07-.209-.139-.348-.243-.522 0 0 0-.069-.035-.069 0 0-.104-.278-.139-.417v-.07s0 0 0-.034c0 0-.07-.244-.104-.383 0 0 0-.104 0-.139-.035-.173-.105-.312-.139-.451 0 0 0 0 0-.035 0 0-.07-.278-.07-.382 0-.035 0-.07 0-.105 0 0 0-.243-.035-.347 0 0 0-.07 0-.104 0 0 0 0 0-.035 0 0 0-.243 0-.348 0 0 0-.104 0-.139 0-.173 0-.312 0-.451s0-.313 0-.452c0-.035 0-.07 0-.104 0 0 0-.244 0-.348v-.069s0 0 0-.035c0 0 0-.243.07-.382 0 0 0-.105 0-.139 0-.174.069-.313.104-.487 0-.139.07-.278.104-.382l1.356-4.379.243-.764c0-.105.139-.139.243-.105.104 0 .139.139.104.244 0 0-.069.243-.104.347-.035.139-.069.278-.104.417v.139s-.07.209-.07.313v.139.278.139.382.417.139s0 .209.035.278v.139c0 .105 0 .174.035.278v.139c0 .104.035.209.069.313v.069s.105.279.139.418v.104s.105.208.139.313c0 .034 0 .104.07.138.035.105.069.209.139.313v.105s.174.278.243.417c.07.173.139.312.209.451 0 .035.034.07.069.139.07.105.139.244.243.348l.07.069s.208.313.347.487l.07.104c.139.174.278.348.382.452l.07.069c.069.105.139.174.243.244 0 0 .035.034.069.069l.07.07s.104.104.174.173l.139.139s.139.139.208.174c0 0 .07.07.104.104h.035s.139.139.174.209c.174.139.313.278.486.382l.105.07s.278.208.417.312c.034.035.104.07.139.105.174.104.313.243.486.347h.07c.173.174.382.278.556.417.139.07.243.139.382.243.208.139.452.244.73.417.069.035.139.07.208.105.209.104.417.208.626.312l.104.07c.243.104.486.208.764.347l.209.07c.208.104.417.174.626.278l.173.069c.278.105.522.209.8.278l.173.07c.209.069.417.139.626.208.139.035.243.07.382.105.174.069.348.104.521.139.139.034.244.069.383.104.173.035.382.104.556.139h.104s.174.069.278.104c.208.035.417.104.625.139h.139s.139.07.209.07c.069 0 .139 0 .174.034h.139c.278.07.521.139.799.174.104 0 .208 0 .313.035h.104c.243.035.486.104.73.104.173 0 .312.035.486.07.174 0 .313.034.487.069.173 0 .347.035.521.035s.313 0 .486.035c.174 0 .383 0 .556.034h.383.625.104.244.903.07.973.173.105.695.312c.244 0 .452 0 .695-.034h.244c.312-.035.625-.07.938-.105h.174c.243-.034.486-.069.729-.104.105 0 .174 0 .278-.035.244 0 .452-.069.695-.104h.244c.312-.104.59-.139.903-.208h.174c.243-.105.486-.139.695-.209.104 0 .174-.035.278-.069.208-.035.417-.105.625-.174h.105s.104-.07.173-.07c.313-.104.591-.173.869-.243h.07c.278-.104.521-.174.799-.278.069 0 .104-.035.174-.069h.104c.174-.105.382-.174.556-.244.139-.034.243-.104.382-.139.174-.069.313-.139.487-.208.104-.035.243-.104.347-.139.139-.07.278-.139.452-.209.139-.069.313-.139.452-.208.139-.07.278-.139.417-.209.139-.069.312-.139.451-.243.174-.104.383-.208.556-.313.139-.104.313-.173.452-.278 0 0 .07-.034.104-.069h.07s.208-.174.278-.209l.174-.104s.173-.104.243-.174c.069-.034.104-.069.139-.104.104-.069.174-.139.243-.174.07-.034.104-.069.174-.139.069-.069.139-.104.243-.173 0 0 .104-.105.139-.139.07-.07.139-.139.209-.174h.034s.07-.104.105-.104c.069-.07.173-.139.243-.209l.104-.104s.209-.209.313-.313l.139.104-.139-.139s.208-.208.278-.312l.104-.105s.139-.139.209-.208c0 0 .069-.07.069-.104 0 0 .104-.174.174-.244.035-.034.069-.104.104-.139.035-.069.104-.139.139-.208.035-.035.07-.104.104-.139.035-.07.105-.139.139-.209 0 0 .07-.104.07-.139.035-.069.104-.139.139-.208 0 0 .035-.104.069-.139.035-.07.105-.139.139-.243 0 0 0-.105.035-.105.07-.104.139-.243.174-.347.069-.104.104-.209.174-.313 0 0 0-.035 0-.069 0 0 .069-.209.104-.279 0 0 0-.069.035-.104 0 0 .069-.173.069-.243 0-.035 0-.104.035-.139 0-.07.035-.139.069-.208 0-.035 0-.105.035-.139 0-.07.035-.139.07-.209 0-.035 0-.104.034-.139 0-.069 0-.139.035-.208 0 0 0-.105 0-.139 0-.07 0-.174.035-.244v-.104s.035-.243.069-.348c0-.139 0-.243 0-.347v-.104s0-.139 0-.244c0 0 0-.069 0-.104 0 0 0-.174 0-.243 0-.035 0-.104 0-.139 0-.07 0-.139 0-.208 0-.035 0-.105 0-.14 0-.069 0-.139 0-.208 0-.035 0-.104 0-.139 0-.07 0-.139-.034-.209 0 0 0-.104 0-.139 0-.069-.035-.139-.07-.243v-.104c0-.104-.069-.243-.104-.348 0-.104 0-.208.104-.243.104 0 .209 0 .243.104l.973 3.058.626 2.016c.035.139.069.243.104.382v.07s.035.208.07.313v.104s0 .208.034.278v.174.243.174.243.174.243.139.278.139.382c0 .139 0 .278-.034.382v.07s0 .243-.035.313v.104s0 .208-.07.278c0 .035 0 .104-.034.139 0 0-.035.174-.07.243 0 .07 0 .104-.035.174 0 .069-.034.139-.069.243 0 .07-.035.104-.07.174 0 .069-.069.174-.104.243 0 0 0 .104-.035.139-.034.07-.069.174-.104.243 0 0 0 .105-.035.139-.069.139-.104.244-.173.383-.07.139-.139.278-.209.382 0 0 0 .035-.035.069 0 0-.104.209-.139.313 0 .035-.034.07-.069.104 0 0-.104.209-.139.278-.035.035-.07.105-.104.139-.035.07-.105.139-.174.209-.035.035-.07.104-.104.139-.07.069-.105.139-.174.208-.035.035-.07.105-.104.139-.07.07-.139.139-.174.209 0 0-.07.104-.104.139-.07.069-.139.174-.209.243l-.104.104s-.209.209-.348.348c-.104.104-.243.243-.347.347 0 0-.035.035-.07.07h-.034s-.174.208-.244.278c-.034 0-.069.069-.104.104h-.035s-.173.174-.243.243c-.035.035-.104.07-.139.105 0 0-.174.139-.243.208-.07.035-.104.104-.174.139l-.104.07s-.07.034-.07.069h-.069s-.139.139-.174.174c-.104.069-.174.139-.278.208h-.035s-.104.105-.139.139c-.104.07-.208.139-.312.209l-.174.104s-.313.209-.487.313c-.139.069-.278.174-.417.243-.034 0-.069.035-.139.07 0 0-.069 0-.104.069-.174.07-.313.174-.486.243-.139.07-.278.139-.452.209-.174.069-.348.174-.487.243 0 0-.069 0-.104.035-.035 0-.104.035-.139.069-.035 0-.104.035-.139.07h-.104s-.243.139-.382.208c-.174.07-.348.139-.522.209-.139.069-.278.104-.382.139h-.069s-.07.069-.105.069c-.104 0-.173.07-.278.105l-.243.069s-.139.035-.208.07c-.278.104-.591.208-.869.278h-.07c-.278.104-.59.208-.938.312-.069 0-.139 0-.174.035l-.243.07s-.174.034-.278.069c-.069 0-.104 0-.174.035h-.104s-.208.069-.313.104c-.243.07-.521.104-.764.174l-.278.069c-.313.07-.591.105-.904.174l-.382.07s-.243.034-.347.069c-.07 0-.105 0-.174 0h-.104s-.209.035-.313.07c-.278.034-.556.069-.799.104h-.244c-.312.069-.625.104-.938.139h-.382s-.243.035-.348.069c-.034 0-.104 0-.139 0h-.104s-.243 0-.347 0c-.244 0-.487 0-.73 0h-.104s-.139 0-.174 0h-.104c-.313 0-.626 0-.939 0z" fill="#fff" stroke="#fff"></path><path d="m562.922 294.749c-5.595 0-11.224-1.251-15.464-3.753-4.135-2.432-6.429-5.699-6.429-9.139 0-3.475 2.329-6.776 6.533-9.209 8.549-5.004 22.449-5.004 30.963 0 4.135 2.433 6.429 5.699 6.429 9.14 0 3.475-2.329 6.776-6.533 9.208-4.275 2.502-9.904 3.753-15.499 3.753z" fill="#e7e8e8" stroke="#e7e8e8"></path><path d="m187.927 308.788c-1.633 0-3.162-.521-3.961-1.355-.417-.418-.626-.939-.626-1.425l-.139-43.855c0-.104.07-.174.174-.174 0 0 .174.07.174.174 0 .417.208.834.556 1.182.764.764 2.189 1.251 3.753 1.251 1.146 0 2.258-.279 3.092-.73.8-.452 1.217-1.078 1.251-1.703 0-.104.07-.174.174-.174 0 0 .174.07.174.174l.139 43.89c0 .764-.487 1.459-1.39 1.98-.869.522-2.016.8-3.232.8z" fill="#131e29" stroke="#131e29" stroke-width=".85"></path></g><path d="m184.656 260.276c.8-.486 1.912-.764 3.163-.764 2.467 0 4.448 1.181 4.448 2.606 0 .73-.522 1.39-1.321 1.842-.799.487-1.911.764-3.162.764-2.467 0-4.448-1.181-4.448-2.606 0-.73.521-1.39 1.32-1.842z" fill="#fff"></path><path d="m187.788 264.933c-1.633 0-3.162-.521-3.961-1.355-.417-.417-.626-.939-.626-1.425 0-.765.487-1.46 1.39-1.981.869-.521 2.016-.799 3.232-.799 1.633 0 3.162.521 3.961 1.355.417.417.626.938.626 1.425 0 .764-.487 1.459-1.39 1.981-.869.521-2.016.799-3.232.799zm0-5.247c-1.147 0-2.259.278-3.093.729-.799.452-1.216 1.078-1.251 1.703 0 .417.174.834.556 1.182.765.764 2.19 1.251 3.753 1.251 1.147 0 2.259-.278 3.093-.73.799-.452 1.216-1.077 1.251-1.703 0-.417-.174-.834-.556-1.181-.764-.765-2.189-1.251-3.753-1.251z" fill="#7b21f2"></path><path d="m169.168 293.289h-.069l-6.603-3.892c-1.425-.834-2.224-2.606-2.259-4.969l-.069-28.46s0-.244 0-.348c0 0 0-.035 0-.069v-.105s0-.139 0-.173v-.105s0-.173.035-.243c0 0 0-.069 0-.104v-.07s0-.139.034-.208c0-.035 0-.07 0-.104v-.07s0-.139.035-.174c0-.034 0-.069 0-.104 0 0 0-.174.035-.243 0-.035 0-.104.035-.139 0-.07 0-.139.034-.209 0-.069 0-.104.035-.173 0-.07.035-.139.07-.209 0-.069 0-.104.034-.174 0-.069.035-.139.07-.208 0-.07.035-.104.069-.174 0-.069.035-.139.07-.208 0-.07.035-.105.069-.174 0-.07.035-.139.07-.209 0-.069.035-.104.069-.173 0-.07.07-.139.07-.209l.069-.174s.07-.139.105-.208c0 0 .034-.104.069-.174 0-.069.07-.139.104-.174l.07-.173s.069-.139.104-.209l.07-.139s.104-.174.139-.243l.069-.104s.139-.244.209-.348v-.069s.139-.174.208-.278l.07-.105s.104-.139.139-.208l.104-.139s.069-.104.104-.174c0 0 .035-.069.07-.104 0 0 .104-.174.139-.209 0-.034.069-.069.069-.104 0 0 .104-.139.139-.208.035-.035.07-.105.104-.139.035-.07.105-.105.139-.174.035-.035.07-.07.105-.139.034-.07.104-.104.139-.139.034-.035.069-.07.104-.139.035-.035.104-.104.139-.139s.069-.07.104-.104c.035-.035.104-.105.139-.139.035-.035.07-.07.104-.105.035-.034.105-.104.139-.139 0 0 .07-.069.105-.104.034-.035.104-.104.174-.139 0 0 .069-.069.104-.104.034-.035.104-.07.139-.104h.034s.07-.07.07-.105c.035-.034.104-.069.139-.104h.07s.034-.069.069-.104c.07-.035.139-.104.209-.139h.034s.035-.07.07-.07c.104-.069.208-.139.312-.173l34.751-20.295s.243-.139.347-.173h.035s.208-.139.313-.174c.104-.035.208-.104.312-.139h.07s.208-.104.313-.139c0 0 .208-.07.312-.104.105 0 .209-.07.313-.105h.035s.208-.069.278-.069h.069s.174-.035.278-.07c0 0 .209 0 .313-.034h.278.035.278.035.278s.174 0 .278.034c.069 0 .174 0 .243.07.07 0 .174.035.243.069h.035s.174.07.243.105h.035s.139.069.243.104c0 0 .174.104.243.139l6.603 3.892s.104.139.07.243c-.035.07-.139.105-.244.07 0 0-.139-.07-.208-.104-.07 0-.139-.07-.209-.105h-.034s-.139-.069-.209-.104c-.069 0-.139-.035-.243-.07 0 0-.209.001-.278-.034-.07 0-.174 0-.243 0h-.035s-.174 0-.243 0h-.035s-.174 0-.243 0c-.105 0-.174 0-.278 0-.105 0-.174 0-.278 0h-.035s-.174.035-.278.069h-.035s-.174.035-.278.07h-.035s-.208.069-.278.104l-.069-.139v.174s-.139.069-.243.104c0 0-.209.104-.278.139h-.035s-.209.104-.278.139h-.035s-.208.139-.313.174h-.034s-.209.139-.313.208l-34.75 20.294s-.209.105-.278.174l-.105.07s-.139.069-.173.139c0 0-.035 0-.07.034h-.069s-.105.105-.139.139c0 0-.07.035-.07.07h-.035s-.104.104-.173.139c0 0-.07.035-.105.069 0 0-.104.105-.139.139-.034 0-.069.07-.104.105 0 0-.104.104-.139.139-.035.034-.069.069-.104.104s-.104.104-.139.139-.07.069-.104.104c-.035.035-.105.104-.139.139-.035.035-.07.07-.105.139-.034.035-.104.104-.139.139-.034.035-.069.07-.104.139-.035.035-.104.104-.139.174-.035.035-.069.069-.104.139-.035.069-.104.104-.139.174 0 0-.07.104-.104.139-.035.069-.07.104-.139.173 0 0-.035.105-.07.139-.035.035-.069.105-.104.174l-.104.139s-.07.104-.105.174l-.104.139s-.104.174-.174.243v.07s-.173.208-.243.312v.105s-.139.173-.174.243l-.069.139s-.07.139-.104.208l-.07.139s-.069.139-.104.209l-.07.139s-.069.139-.104.208l-.069.139s-.07.139-.07.209c0 .035-.035.104-.069.174 0 .069-.035.139-.07.208 0 .07-.035.104-.069.174 0 .069-.035.139-.07.208 0 .07-.035.105-.069.174 0 .07-.035.139-.07.209 0 .069 0 .104-.035.173 0 .07-.034.139-.069.209 0 .069 0 .104-.035.174 0 .069 0 .139-.035.208v.174c0 .069 0 .139-.034.208v.139.209.069.105.208.07.069.243.105.208.07.069.348l.069 28.46c0 2.224.73 3.892 2.085 4.657 0 0 .104.139.07.243 0 .069-.07.069-.139.069z" fill="#c48e23"></path><path d="m211.529 228.584c.104.035.174.07.243.07.07.035.209.104.209.104h.034c.07.035.139.105.209.105.069.034.208.104.208.104.105.035.209 0 .244-.07.034-.104-.07-.243-.07-.243l-6.603-3.892c-.069-.035-.243-.139-.243-.139-.104-.035-.243-.104-.243-.104h-.035c-.069-.035-.243-.105-.243-.105h-.035c-.069-.034-.173-.069-.243-.069-.069-.07-.174-.07-.243-.07-.104-.034-.278-.034-.278-.034-.105 0-.278 0-.278 0h-.035c-.104 0-.278 0-.278 0h-.035c-.069 0-.174 0-.278 0-.104.034-.313.034-.313.034-.104.035-.278.07-.278.07h-.069c-.07 0-.278.069-.278.069h-.035c-.104.035-.208.105-.313.105-.104.034-.312.104-.312.104-.105.035-.313.139-.313.139h-.07c-.104.035-.208.104-.312.139-.105.035-.313.174-.313.174h-.035c-.104.034-.347.173-.347.173l-34.751 20.295c-.104.034-.208.104-.312.173-.035 0-.07.07-.07.07h-.034c-.07.035-.139.104-.209.139-.035.035-.069.104-.069.104h-.07c-.035.035-.104.07-.139.104 0 .035-.07.105-.07.105h-.034c-.035.034-.105.069-.139.104-.035.035-.104.104-.104.104-.07.035-.14.104-.174.139-.035.035-.105.104-.105.104-.034.035-.104.105-.139.139-.034.035-.069.07-.104.105-.035.034-.104.104-.139.139-.035.034-.069.069-.104.104s-.104.104-.139.139c-.035.069-.07.104-.104.139-.035.035-.105.069-.139.139-.035.069-.07.104-.105.139-.034.069-.104.104-.139.174-.034.034-.069.104-.104.139-.035.069-.139.208-.139.208 0 .035-.069.07-.069.104-.035.035-.139.209-.139.209-.035.035-.07.104-.07.104-.035.07-.104.174-.104.174l-.104.139c-.035.069-.139.208-.139.208l-.07.105c-.069.104-.208.278-.208.278v.069c-.07.104-.209.348-.209.348l-.069.104c-.035.069-.139.243-.139.243l-.07.139c-.035.07-.104.209-.104.209l-.07.173c-.034.035-.104.105-.104.174-.035.07-.069.174-.069.174-.035.069-.105.208-.105.208l-.069.174c0 .07-.07.139-.07.209-.034.069-.069.104-.069.173-.035.07-.07.139-.07.209-.034.069-.069.104-.069.174-.035.069-.07.139-.07.208-.034.07-.069.104-.069.174-.035.069-.07.139-.07.208-.034.07-.034.105-.034.174-.035.07-.07.139-.07.209-.035.069-.035.104-.035.173-.034.07-.034.139-.034.209-.035.035-.035.104-.035.139-.035.069-.035.243-.035.243v.104c-.035.035-.035.174-.035.174v.07.104c-.034.069-.034.208-.034.208v.07.104c-.035.07-.035.243-.035.243v.105.173.105.069.348l.069 28.46c.035 2.363.834 4.135 2.259 4.969l6.603 3.892h.069l.105.278c.069 0 .139 0 .139-.069.034-.104-.07-.243-.07-.243-1.355-.765-2.085-2.433-2.085-4.657l-.069-28.46c0-.105 0-.244 0-.348 0-.035 0-.069 0-.069v-.07c0-.069 0-.208 0-.208v-.105c0-.069 0-.173 0-.243v-.069-.07c0-.069 0-.139 0-.208 0-.035 0-.105 0-.105v-.069c0-.07 0-.139 0-.209 0-.034 0-.139 0-.139.034-.069.034-.139.034-.208 0-.07 0-.174 0-.174.035-.069.035-.139.035-.208.035-.07.035-.105.035-.174.035-.07.069-.139.069-.209.035-.069.035-.104.035-.173.035-.07.07-.139.07-.209.034-.069.069-.104.069-.174.035-.069.07-.139.07-.208.034-.07.069-.104.069-.174.035-.069.07-.139.07-.208.034-.07.069-.139.069-.174 0-.07.07-.209.07-.209l.069-.139c.035-.069.104-.208.104-.208l.07-.139c.035-.07.104-.209.104-.209l.07-.139c.034-.069.104-.208.104-.208l.069-.139c.035-.07.174-.243.174-.243v-.105c.07-.104.243-.312.243-.312v-.07c.07-.069.174-.243.174-.243l.104-.139c.035-.07.105-.174.105-.174l.104-.139c.035-.069.069-.139.104-.174.035-.034.07-.139.07-.139.069-.069.104-.104.139-.173.034-.035.104-.139.104-.139.035-.07.104-.105.139-.174.035-.07.069-.104.104-.139.035-.07.104-.139.139-.174.035-.069.07-.104.104-.139.035-.035.105-.104.139-.139.035-.069.07-.104.105-.139.034-.035.104-.104.139-.139.034-.035.069-.069.104-.104l.139-.139c.035-.035.069-.07.104-.104.035-.035.139-.139.139-.139.035-.035.07-.105.104-.105.035-.034.139-.139.139-.139.035-.034.105-.069.105-.069.069-.035.173-.139.173-.139h.035c0-.035.07-.07.07-.07.034-.034.139-.139.139-.139h.069c.035-.034.07-.034.07-.034.034-.07.173-.139.173-.139l.105-.07c.069-.069.278-.174.278-.174l34.75-20.294c.104-.069.313-.208.313-.208h.034c.105-.035.313-.174.313-.174h.035c.069-.035.278-.139.278-.139h.035c.069-.035.278-.139.278-.139.104-.035.243-.104.243-.104v-.174l.069.139c.07-.035.278-.104.278-.104h.035c.104-.035.278-.07.278-.07h.035c.104-.034.278-.069.278-.069h.035.278.278.243.035.243.035.243m.278.034v-.173m0 .173s-.209.001-.278-.034m0 0v-.174" stroke="#c48e23" stroke-linecap="round" stroke-linejoin="round"></path><path d="m171.107 293.81c-.729 0-1.424-.174-2.015-.521-1.46-.834-2.259-2.607-2.259-4.97l-.069-28.46c0-3.788 2.641-8.444 5.907-10.356l34.75-20.294c2.12-1.251 4.101-1.424 5.63-.556 1.494.869 2.328 2.711 2.328 5.143l.07 28.113c0 3.788-2.641 8.445-5.908 10.356l-35.028 20.468c-1.216.695-2.363 1.042-3.406 1.042z" fill="#f0b323"></path><path d="m172.671 249.503c-3.266 1.912-5.907 6.568-5.907 10.356l.069 28.46c0 2.363.799 4.136 2.259 4.97.591.347 1.286.521 2.015.521v-.035c1.043 0 2.19-.347 3.406-1.042l35.028-20.468c3.267-1.911 5.908-6.568 5.908-10.356l-.07-28.113c0-2.432-.834-4.274-2.328-5.143-1.529-.868-3.51-.695-5.63.556zm0 0 .07.139" stroke="#f0b323" stroke-linecap="round" stroke-linejoin="round"></path><path d="m180.529 365.465 55.6-32.491c1.356-.8 3.058-.313 3.858 1.042.764 1.355.312 3.093-1.043 3.892l-55.6 32.492c-.452.243-.939.382-1.39.382-.973 0-1.912-.521-2.433-1.425-.764-1.355-.313-3.093 1.043-3.892z" fill="#395972" stroke="#395972" stroke-linecap="round" stroke-linejoin="round" stroke-width=".85"></path><path d="m179.486 334.016c.765-1.355 2.502-1.842 3.858-1.042l55.461 32.422c1.355.799 1.807 2.536 1.043 3.892-.522.903-1.46 1.424-2.433 1.424-.486 0-.973-.139-1.39-.382l-55.461-32.422c-1.356-.799-1.807-2.537-1.043-3.892z" fill="#395972" stroke="#395972" stroke-linecap="round" stroke-linejoin="round" stroke-width=".85"></path><path d="m204.817 346.527-.139-44.515c0 1.598 2.224 2.919 4.969 2.919 1.39 0 2.606-.313 3.51-.869.903-.556 1.459-1.251 1.459-2.05l.139 48.893c0 .8-.556 1.529-1.459 2.051l-8.479-6.464z" fill="#395972" stroke="#395972" stroke-linecap="round" stroke-linejoin="round" stroke-width=".85"></path><path d="m206.17 299.962c.904-.521 2.155-.869 3.51-.869 2.745 0 4.969 1.321 4.969 2.919 0 .799-.556 1.529-1.459 2.05-.904.522-2.155.869-3.51.869-2.745 0-4.969-1.32-4.969-2.919 0-.799.556-1.529 1.459-2.05z" fill="#fff"></path><path d="m209.649 305.104c-1.807 0-3.509-.591-4.413-1.494-.452-.487-.695-1.008-.695-1.564 0-.834.556-1.633 1.564-2.189.973-.556 2.259-.869 3.614-.869 1.807 0 3.51.591 4.413 1.494.452.487.695 1.008.695 1.564 0 .834-.556 1.633-1.564 2.189-.973.556-2.258.869-3.614.869zm0-5.838c-1.285 0-2.536.313-3.44.834-.903.521-1.39 1.216-1.39 1.911 0 .452.209.939.626 1.356.868.868 2.467 1.39 4.17 1.39 1.285 0 2.536-.313 3.44-.834.903-.522 1.39-1.217 1.39-1.912 0-.451-.209-.938-.626-1.355-.868-.869-2.467-1.39-4.17-1.39z" fill="#7b21f2"></path><path d="m170.763 309.587 28.252 16.611c4.066 2.398 10.669 2.398 14.769 0l35.028-20.468c1.634-.938 2.433-2.189 2.433-3.44v7.714c0 1.251-.799 2.502-2.398 3.441l-35.028 20.467c-4.101 2.398-10.703 2.398-14.769 0l-28.252-16.61c-1.598-.938-2.398-2.155-2.398-3.406v-7.714c0 1.216.765 2.467 2.363 3.405z" fill="#c48e23" stroke="#c48e23" stroke-linecap="round" stroke-linejoin="round"></path><path d="m170.802 302.775 34.75-20.294c4.239-2.502 11.12-2.502 15.359 0l27.974 16.437c3.197 1.877 3.197 4.935-.034 6.846l-35.029 20.468c-4.1 2.398-10.703 2.398-14.768 0l-28.252-16.611c-3.197-1.876-3.197-4.934.034-6.846z" fill="#f0b323" stroke="#f0b323" stroke-linecap="round" stroke-linejoin="round"></path><path d="m167.877 421.691 5.456-3.231.208-74.088-5.456 3.197z" fill="#395972" stroke="#395972" stroke-linecap="round" stroke-linejoin="round" stroke-width=".85"></path><g fill="#7b21f2" opacity=".15"><path d="m363.281 308.89 5.456-1.946v-2.71l-5.456 3.093z"></path><path d="m363.146 309.134v-1.876l5.769-3.267v3.058zm.313-1.703v1.251l5.178-1.841v-2.329l-5.178 2.954z"></path></g><g fill="#7b21f2" opacity=".15"><path d="m231.645 385.828 5.49-1.911v-2.745l-5.49 3.127z"></path><path d="m231.51 386.072v-1.877l5.768-3.266v3.127zm.313-1.668v1.251l5.177-1.807v-2.363l-5.177 2.954z"></path></g><path d="m231.435 460.298 5.491-3.232-63.593-38.608-5.456 3.232z" fill="#131e29" stroke="#131e29" stroke-linecap="round" stroke-linejoin="round" stroke-width=".85"></path><path d="m231.439 460.298 5.491-3.231.208-75.408-5.49 3.231z" fill="#395972" stroke="#395972" stroke-linecap="round" stroke-linejoin="round" stroke-width=".85"></path><path d="m363.073 383.745 5.456-3.197-63.558-38.608-5.491 3.197z" fill="#131e29" stroke="#131e29" stroke-linecap="round" stroke-linejoin="round" stroke-width=".85"></path><path d="m363.068 383.744 5.456-3.197.209-75.408-5.456 3.197z" fill="#395972" stroke="#395972" stroke-linecap="round" stroke-linejoin="round" stroke-width=".85"></path><path d="m166.629 345.762 64.913 38.191 137.854-80.551-64.913-38.191z" fill="#fff" stroke="#fff" stroke-linecap="round" stroke-linejoin="round"></path><path d="m250.207 470.307 5.456-3.197.208-74.122-5.49 3.232z" fill="#395972" stroke="#395972" stroke-linecap="round" stroke-linejoin="round" stroke-width=".85"></path><g fill="#7b21f2" opacity=".15"><path d="m445.6 357.542 5.455-1.981v-2.71l-5.455 3.127z"></path><path d="m445.465 357.751v-1.876l5.768-3.267v3.058zm.313-1.703v1.251l5.177-1.841v-2.329l-5.177 2.954z"></path></g><g fill="#7b21f2" opacity=".15"><path d="m313.965 434.479 5.49-1.946v-2.745l-5.49 3.128z"></path><path d="m313.83 434.689v-1.877l5.769-3.266v3.127zm.313-1.668v1.251l5.178-1.807v-2.363l-5.178 2.953z"></path></g><path d="m313.765 508.913 5.491-3.197-63.593-38.607-5.456 3.197z" fill="#131e29" stroke="#131e29" stroke-linecap="round" stroke-linejoin="round" stroke-width=".85"></path><path d="m313.762 508.914 5.49-3.197.209-75.408-5.491 3.197z" fill="#395972" stroke="#395972" stroke-linecap="round" stroke-linejoin="round" stroke-width=".85"></path><path d="m445.396 432.394 5.455-3.232-63.558-38.607-5.49 3.232z" fill="#131e29" stroke="#131e29" stroke-linecap="round" stroke-linejoin="round" stroke-width=".85"></path><path d="m445.398 432.395 5.456-3.232.209-75.408-5.456 3.232z" fill="#395972" stroke="#395972" stroke-linecap="round" stroke-linejoin="round" stroke-width=".85"></path><path d="m248.916 394.377 64.948 38.225 137.854-80.585-64.948-38.191z" fill="#fff" stroke="#fff" stroke-linecap="round" stroke-linejoin="round"></path><path d="m364.707 490.566 55.6-32.491c1.355-.8 3.058-.313 3.857 1.042.765 1.355.313 3.093-1.042 3.892l-55.601 32.492c-.451.243-.938.382-1.39.382-.973 0-1.911-.521-2.432-1.425-.765-1.355-.313-3.093 1.042-3.892z" fill="#395972" stroke="#395972" stroke-linecap="round" stroke-linejoin="round" stroke-width=".85"></path><path d="m363.664 459.117c.765-1.355 2.502-1.842 3.857-1.042l55.462 32.422c1.355.799 1.807 2.536 1.042 3.892-.521.903-1.459 1.424-2.432 1.424-.487 0-.973-.139-1.39-.382l-55.462-32.422c-1.355-.799-1.807-2.537-1.042-3.892z" fill="#395972" stroke="#395972" stroke-linecap="round" stroke-linejoin="round" stroke-width=".85"></path><path d="m388.993 471.627-.139-44.515c0 1.599 2.224 2.919 4.969 2.919 1.39 0 2.606-.312 3.51-.868.903-.556 1.459-1.251 1.459-2.051l.139 48.894c0 .799-.556 1.529-1.459 2.05l-8.479-6.463z" fill="#395972" stroke="#395972" stroke-linecap="round" stroke-linejoin="round" stroke-width=".85"></path><path d="m390.348 425.062c.904-.521 2.155-.868 3.51-.868 2.745 0 4.969 1.32 4.969 2.919 0 .799-.556 1.529-1.459 2.05-.904.521-2.155.869-3.51.869-2.745 0-4.969-1.321-4.969-2.919 0-.8.556-1.529 1.459-2.051z" fill="#fff"></path><path d="m393.827 430.205c-1.807 0-3.51-.591-4.413-1.495-.452-.486-.695-1.007-.695-1.563 0-.834.556-1.634 1.563-2.19.974-.556 2.259-.868 3.615-.868 1.807 0 3.509.59 4.413 1.494.452.486.695 1.008.695 1.564 0 .834-.556 1.633-1.564 2.189-.973.556-2.259.869-3.614.869zm0-5.838c-1.286 0-2.537.312-3.44.834-.904.521-1.39 1.216-1.39 1.911 0 .452.208.938.625 1.355.869.869 2.468 1.39 4.17 1.39 1.286 0 2.537-.313 3.441-.834.903-.521 1.39-1.216 1.39-1.911 0-.452-.209-.938-.626-1.355-.869-.869-2.467-1.39-4.17-1.39z" fill="#7b21f2"></path><path d="m354.939 434.688 28.252 16.611c4.066 2.398 10.668 2.398 14.769 0l35.028-20.468c1.633-.938 2.433-2.189 2.433-3.44v7.714c0 1.251-.8 2.502-2.398 3.44l-35.028 20.468c-4.101 2.398-10.703 2.398-14.769 0l-28.252-16.61c-1.599-.939-2.398-2.155-2.398-3.406v-7.714c0 1.216.765 2.467 2.363 3.405z" fill="#c48e23" stroke="#c48e23" stroke-linecap="round" stroke-linejoin="round"></path><path d="m354.975 427.876 34.751-20.294c4.239-2.502 11.12-2.502 15.359 0l27.974 16.437c3.197 1.877 3.197 4.935-.035 6.846l-35.028 20.468c-4.1 2.398-10.703 2.398-14.769 0l-28.252-16.611c-3.197-1.876-3.197-4.934.035-6.846z" fill="#f0b323" stroke="#f0b323" stroke-linecap="round" stroke-linejoin="round"></path><path d="m388.094 449.666h-.069l-6.603-3.892c-1.425-.834-2.224-2.607-2.259-4.97l-.069-28.46s0-.243 0-.348c0 0 0-.034 0-.069v-.104s0-.139 0-.174v-.104s0-.174.034-.244c0 0 0-.069 0-.104v-.069s0-.139.035-.209c0-.035 0-.069 0-.104v-.07s0-.139.035-.173c0-.035 0-.07 0-.105 0 0 0-.173.035-.243 0-.035 0-.104.034-.139 0-.069 0-.139.035-.208 0-.07 0-.105.035-.174 0-.07.035-.139.069-.209 0-.069 0-.104.035-.173 0-.07.035-.139.07-.209 0-.069.035-.104.069-.174 0-.069.035-.139.07-.208 0-.07.035-.104.069-.174 0-.069.035-.139.07-.208 0-.07.034-.105.069-.174 0-.07.07-.139.07-.209l.069-.173s.07-.139.104-.209c0 0 .035-.104.07-.174 0-.069.069-.139.104-.173l.07-.174s.069-.139.104-.209l.069-.139s.105-.173.139-.243l.07-.104s.139-.243.209-.348v-.069s.138-.174.208-.278l.07-.104s.104-.139.138-.209l.105-.139s.069-.104.104-.174c0 0 .035-.069.07-.104 0 0 .104-.174.139-.208 0-.035.069-.07.069-.105 0 0 .104-.139.139-.208.035-.035.07-.104.104-.139.035-.07.104-.104.139-.174.035-.035.07-.069.105-.139.034-.069.104-.104.138-.139.035-.035.07-.069.105-.139.035-.035.104-.104.139-.139.034-.035.069-.069.104-.104l.139-.139c.035-.035.07-.07.104-.104.035-.035.105-.105.139-.139 0 0 .07-.07.105-.105.034-.034.104-.104.173-.139 0 0 .07-.069.105-.104.034-.035.104-.069.139-.104h.034s.07-.07.07-.104c.035-.035.104-.07.139-.105h.069s.035-.069.07-.104c.069-.035.139-.104.208-.139h.035s.035-.069.07-.069c.104-.07.208-.139.312-.174l34.75-20.294s.244-.139.348-.174h.035s.208-.139.312-.174c.105-.035.209-.104.313-.139h.07s.208-.104.313-.139c0 0 .208-.069.312-.104.105 0 .209-.07.313-.104h.035s.208-.07.278-.07h.069s.174-.035.278-.069c0 0 .209 0 .313-.035h.278.035.278.035.277s.174 0 .278.035c.07 0 .174 0 .244.069.069 0 .173.035.243.07h.035s.173.069.243.104h.035s.139.069.243.104c0 0 .174.104.243.139l6.603 3.892s.104.139.069.243c-.034.07-.139.105-.243.07 0 0-.139-.07-.208-.104-.07 0-.139-.07-.209-.105h-.035s-.139-.069-.208-.104c-.07 0-.139-.035-.243-.069 0 0-.209 0-.278-.035-.07 0-.174 0-.244 0h-.034s-.174 0-.244 0h-.034s-.174 0-.244 0c-.104 0-.173 0-.278 0-.104 0-.173 0-.278 0h-.034s-.174.035-.278.069h-.035s-.174.035-.278.07h-.035s-.208.069-.278.104l-.069-.139v.174s-.139.069-.244.104c0 0-.208.104-.278.139h-.034s-.209.104-.278.139h-.035s-.209.139-.313.174h-.035s-.208.139-.312.208l-34.751 20.295s-.208.104-.278.173l-.104.07s-.139.069-.174.139c0 0-.034 0-.069.035h-.07s-.104.104-.139.139c0 0-.069.034-.069.069h-.035s-.104.104-.174.139c0 0-.069.035-.104.07 0 0-.104.104-.139.139-.035 0-.069.069-.104.104 0 0-.104.104-.139.139s-.07.069-.104.104c-.035.035-.105.104-.139.139-.035.035-.07.07-.105.104-.034.035-.104.105-.139.139-.034.035-.069.07-.104.139-.035.035-.104.105-.139.139-.035.035-.069.07-.104.139-.035.035-.104.105-.139.174-.035.035-.07.07-.104.139-.035.07-.105.104-.139.174 0 0-.07.104-.105.139-.034.069-.069.104-.139.174 0 0-.034.104-.069.139-.035.034-.07.104-.104.173l-.105.139s-.069.105-.104.174l-.104.139s-.104.174-.174.243v.07s-.174.208-.243.313v.104s-.139.174-.174.243l-.069.139s-.07.139-.105.209l-.069.139s-.07.139-.104.208l-.07.139s-.069.139-.104.209l-.07.139s-.069.139-.069.208c0 .035-.035.104-.07.174 0 .069-.034.139-.069.208 0 .07-.035.105-.07.174 0 .07-.034.139-.069.209 0 .069-.035.104-.07.173 0 .07-.034.139-.069.209 0 .069 0 .104-.035.174 0 .069-.035.139-.069.208 0 .07 0 .104-.035.174 0 .069 0 .139-.035.208v.174c0 .07 0 .139-.035.209v.139.208.07.104.208.07.069.244.104.208.07.069.348l.07 28.46c0 2.224.73 3.892 2.085 4.657 0 0 .104.139.069.243 0 .07-.069.07-.139.07z" fill="#c48e23"></path><path d="m430.455 384.961c.104.034.173.069.243.069.069.035.208.104.208.104h.035c.07.035.139.105.209.105.069.034.208.104.208.104.104.035.209 0 .243-.07.035-.104-.069-.243-.069-.243l-6.603-3.892c-.069-.035-.243-.139-.243-.139-.104-.035-.243-.104-.243-.104h-.035c-.07-.035-.243-.104-.243-.104h-.035c-.07-.035-.174-.07-.243-.07-.07-.069-.174-.069-.244-.069-.104-.035-.278-.035-.278-.035-.104 0-.277 0-.277 0h-.035c-.105 0-.278 0-.278 0h-.035c-.069 0-.174 0-.278 0-.104.035-.313.035-.313.035-.104.034-.278.069-.278.069h-.069c-.07 0-.278.07-.278.07h-.035c-.104.034-.208.104-.313.104-.104.035-.312.104-.312.104-.105.035-.313.139-.313.139h-.07c-.104.035-.208.104-.313.139-.104.035-.312.174-.312.174h-.035c-.104.035-.348.174-.348.174l-34.75 20.294c-.104.035-.208.104-.312.174-.035 0-.07.069-.07.069h-.035c-.069.035-.139.104-.208.139-.035.035-.07.104-.07.104h-.069c-.035.035-.104.07-.139.105 0 .034-.07.104-.07.104h-.034c-.035.035-.105.069-.139.104-.035.035-.105.104-.105.104-.069.035-.139.105-.173.139-.035.035-.105.105-.105.105-.034.034-.104.104-.139.139-.034.034-.069.069-.104.104s-.104.104-.139.139-.07.069-.104.104c-.035.035-.104.104-.139.139-.035.07-.07.104-.105.139-.034.035-.104.07-.138.139-.035.07-.07.104-.105.139-.035.07-.104.104-.139.174-.034.035-.069.104-.104.139-.035.069-.139.208-.139.208 0 .035-.069.07-.069.105-.035.034-.139.208-.139.208-.035.035-.07.104-.07.104-.035.07-.104.174-.104.174l-.105.139c-.034.07-.138.209-.138.209l-.07.104c-.07.104-.208.278-.208.278v.069c-.07.105-.209.348-.209.348l-.07.104c-.034.07-.139.243-.139.243l-.069.139c-.035.07-.104.209-.104.209l-.07.174c-.035.034-.104.104-.104.173-.035.07-.07.174-.07.174-.034.07-.104.209-.104.209l-.069.173c0 .07-.07.139-.07.209-.035.069-.069.104-.069.174-.035.069-.07.139-.07.208-.034.07-.069.104-.069.174-.035.069-.07.139-.07.208-.034.07-.069.105-.069.174-.035.07-.07.139-.07.209-.035.069-.035.104-.035.173-.034.07-.069.139-.069.209-.035.069-.035.104-.035.174-.035.069-.035.139-.035.208-.034.035-.034.104-.034.139-.035.07-.035.243-.035.243v.105c-.035.034-.035.173-.035.173v.07.104c-.035.07-.035.209-.035.209v.069.104c-.034.07-.034.244-.034.244v.104.174.104.069.348l.069 28.46c.035 2.363.834 4.136 2.259 4.97l6.603 3.892h.069l.104.278c.07 0 .139 0 .139-.07.035-.104-.069-.243-.069-.243-1.355-.765-2.085-2.433-2.085-4.657l-.07-28.46c0-.104 0-.243 0-.348 0-.034 0-.069 0-.069v-.07c0-.069 0-.208 0-.208v-.104c0-.07 0-.174 0-.244v-.069-.07c0-.069 0-.139 0-.208 0-.035 0-.104 0-.104v-.07c0-.069 0-.139 0-.208 0-.035 0-.139 0-.139.035-.07.035-.139.035-.209 0-.069 0-.174 0-.174.035-.069.035-.139.035-.208.035-.07.035-.104.035-.174.034-.069.069-.139.069-.208.035-.07.035-.105.035-.174.035-.07.069-.139.069-.209.035-.069.07-.104.07-.173.035-.07.069-.139.069-.209.035-.069.07-.104.07-.174.035-.069.069-.139.069-.208.035-.07.07-.139.07-.174 0-.069.069-.208.069-.208l.07-.139c.035-.07.104-.209.104-.209l.07-.139c.034-.069.104-.208.104-.208l.069-.139c.035-.07.105-.209.105-.209l.069-.139c.035-.069.174-.243.174-.243v-.104c.069-.105.243-.313.243-.313v-.07c.07-.069.174-.243.174-.243l.104-.139c.035-.069.104-.174.104-.174l.105-.139c.034-.069.069-.139.104-.173.035-.035.069-.139.069-.139.07-.07.105-.105.139-.174.035-.035.105-.139.105-.139.034-.07.104-.104.139-.174.034-.069.069-.104.104-.139.035-.069.104-.139.139-.174.035-.069.069-.104.104-.139.035-.034.104-.104.139-.139.035-.069.07-.104.104-.139.035-.034.105-.104.139-.139.035-.034.07-.069.105-.104.034-.035.104-.104.139-.139.034-.035.069-.069.104-.104s.139-.139.139-.139c.035-.035.069-.104.104-.104.035-.035.139-.139.139-.139.035-.035.104-.07.104-.07.07-.035.174-.139.174-.139h.035c0-.035.069-.069.069-.069.035-.035.139-.139.139-.139h.07c.035-.035.069-.035.069-.035.035-.07.174-.139.174-.139l.104-.07c.07-.069.278-.173.278-.173l34.751-20.295c.104-.069.312-.208.312-.208h.035c.104-.035.313-.174.313-.174h.035c.069-.035.278-.139.278-.139h.034c.07-.035.278-.139.278-.139.105-.035.244-.104.244-.104v-.174l.069.139c.07-.035.278-.104.278-.104h.035c.104-.035.278-.07.278-.07h.035c.104-.034.278-.069.278-.069h.034.278.278.244.034.244.034.244m.278.035v-.174m0 .174s-.209 0-.278-.035m0 0v-.174" stroke="#c48e23" stroke-linecap="round" stroke-linejoin="round"></path><path d="m390.035 450.186c-.73 0-1.425-.174-2.015-.521-1.46-.834-2.259-2.606-2.259-4.969l-.07-28.461c0-3.788 2.641-8.444 5.908-10.355l34.75-20.294c2.12-1.251 4.101-1.425 5.63-.557 1.494.869 2.328 2.711 2.328 5.144l.069 28.112c0 3.788-2.641 8.445-5.907 10.356l-35.028 20.468c-1.217.695-2.363 1.042-3.406 1.042z" fill="#f0b323"></path><path d="m391.599 405.88c-3.267 1.911-5.908 6.567-5.908 10.355l.07 28.461c0 2.363.799 4.135 2.259 4.969.59.347 1.285.521 2.015.521v-.035c1.043 0 2.189-.347 3.406-1.042l35.028-20.468c3.266-1.911 5.907-6.568 5.907-10.356l-.069-28.112c0-2.433-.834-4.275-2.328-5.144-1.529-.868-3.51-.694-5.63.557zm0 0 .069.139" stroke="#f0b323" stroke-linecap="round" stroke-linejoin="round"></path><path d="m413.804 451.264c-1.633 0-3.162-.521-3.961-1.355-.417-.417-.626-.938-.626-1.425l-.139-43.855c0-.104.07-.173.174-.173 0 0 .174.069.174.173 0 .417.208.834.556 1.182.764.764 2.189 1.251 3.753 1.251 1.146 0 2.258-.278 3.092-.73.8-.452 1.217-1.077 1.251-1.703 0-.104.07-.173.174-.173 0 0 .174.069.174.173l.139 43.89c0 .764-.487 1.459-1.39 1.981-.869.521-2.016.799-3.232.799z" fill="#131e29" stroke="#131e29" stroke-linecap="round" stroke-linejoin="round" stroke-width=".85"></path><path d="m410.533 402.753c.8-.487 1.912-.765 3.163-.765 2.467 0 4.448 1.182 4.448 2.607 0 .729-.522 1.39-1.321 1.841-.799.487-1.911.765-3.162.765-2.467 0-4.448-1.182-4.448-2.606 0-.73.521-1.39 1.32-1.842z" fill="#fff"></path><path d="m413.665 407.409c-1.633 0-3.162-.521-3.961-1.355-.417-.417-.626-.939-.626-1.425 0-.765.487-1.46 1.39-1.981.869-.521 2.016-.799 3.232-.799 1.633 0 3.162.521 3.961 1.355.417.417.626.938.626 1.425 0 .764-.487 1.459-1.39 1.981-.869.521-2.016.799-3.232.799zm0-5.247c-1.147 0-2.259.278-3.093.729-.799.452-1.216 1.078-1.251 1.703 0 .417.174.834.556 1.182.765.764 2.19 1.251 3.753 1.251 1.147 0 2.259-.278 3.093-.73.799-.452 1.216-1.077 1.251-1.703 0-.417-.174-.834-.556-1.181-.764-.765-2.189-1.251-3.753-1.251z" fill="#131e29" stroke="#131e29" stroke-linecap="round" stroke-linejoin="round" stroke-width=".85"></path><path d="m240.161 315.563 26.341 15.534c.417.243.903.243 1.286 0l15.047-8.723c.868-.486.868-1.737 0-2.224l-26.341-15.533c-.417-.243-.904-.243-1.286 0l-15.047 8.722c-.868.487-.868 1.738 0 2.224z" fill="#bbbdbf"></path><path d="m245.441 315.807 12.754-7.402 21.719 12.858-12.754 7.401z" fill="#fff"></path><path d="m250.643 311.404c.572-.272.855-.873.632-1.34-.223-.468-.867-.626-1.439-.354s-.855.873-.632 1.34c.223.468.868.626 1.439.354z" fill="#fff"></path><path d="m371.031 363.138 23.943 14.074 42.847-24.847-23.908-14.108z" fill="#fcb813"></path><path d="m375.855 363.138 38.052-22.066 19.113 11.293-38.052 22.032z" fill="#fff"></path><path d="m395.633 350.592 21.371 12.615" stroke="#fcb813" stroke-miterlimit="10" stroke-width=".3"></path><path d="m394.418 380.061-30.198-17.444v-34.021c-.452.244-1.008-.069-1.008-.556l-41.283 23.839c0 .521-.278.973-.73 1.251v34.333l30.094 17.375c.66-.382 1.459-.382 2.12 0l41.005-23.665c-.521-.312-.521-.799 0-1.077z" fill="#bbbdbf"></path><path d="m361.162 332.348-36.175 20.885c-.382.209-.626.626-.626 1.078v30.059l37.67-21.754v-29.781c0-.452-.487-.73-.869-.487z" fill="#fff"></path></svg> 